<?xml version="1.0" encoding="UTF-8" standalone="no"?>
<!-- Generator: Adobe Illustrator 22.1.0, SVG Export Plug-In . SVG Version: 6.00 Build 0)  -->

<svg
   xmlns:dc="http://purl.org/dc/elements/1.1/"
   xmlns:cc="http://creativecommons.org/ns#"
   xmlns:rdf="http://www.w3.org/1999/02/22-rdf-syntax-ns#"
   xmlns:svg="http://www.w3.org/2000/svg"
   xmlns="http://www.w3.org/2000/svg"
   xmlns:sodipodi="http://sodipodi.sourceforge.net/DTD/sodipodi-0.dtd"
   xmlns:inkscape="http://www.inkscape.org/namespaces/inkscape"
   version="1.1"
   id="Camada_1"
   x="0px"
   y="0px"
   viewBox="0 0 550.79999 160.39999"
   xml:space="preserve"
   sodipodi:docname="Logo_TJdocs - Copia.svg"
   width="550.79999"
   height="160.39999"
   inkscape:version="0.92.3 (2405546, 2018-03-11)"><metadata
   id="metadata864"><rdf:RDF><cc:Work
       rdf:about=""><dc:format>image/svg+xml</dc:format><dc:type
         rdf:resource="http://purl.org/dc/dcmitype/StillImage" /><dc:title></dc:title></cc:Work></rdf:RDF></metadata><defs
   id="defs862" /><sodipodi:namedview
   pagecolor="#ffffff"
   bordercolor="#666666"
   borderopacity="1"
   objecttolerance="10"
   gridtolerance="10"
   guidetolerance="10"
   inkscape:pageopacity="0"
   inkscape:pageshadow="2"
   inkscape:window-width="1920"
   inkscape:window-height="1017"
   id="namedview860"
   showgrid="false"
   inkscape:zoom="1"
   inkscape:cx="530.67177"
   inkscape:cy="125.16381"
   inkscape:window-x="-8"
   inkscape:window-y="-8"
   inkscape:window-maximized="1"
   inkscape:current-layer="Camada_1" />
<style
   type="text/css"
   id="style841">
	.st0{fill:#B0B0B0;}
	.st1{fill:#886437;}
</style>
<g
   id="g857"
   transform="translate(-63.6,-55.9)">
	<path
   class="st0"
   d="M 120.2,94.9 H 63.6 v -39 H 238 v 39 h -56.6 v 115.8 h -61.2 z"
   id="path843"
   inkscape:connector-curvature="0"
   style="fill:#b0b0b0" />
	<path
   class="st0"
   d="m 310.5,168.8 c 0,-28.8 14.5,-48.5 37.7,-52.5 V 55.9 H 287 v 98.5 c 0,16.9 -5.6,24.1 -18.6,24.1 -8.7,0 -13,-2.6 -15.6,-8 -2.6,-5.4 -2.8,-13.7 -2.8,-24.5 h -61.2 c 0,55.7 23.9,70.3 83.3,70.3 22.9,0 39.1,-3.3 50.5,-9.3 -7.8,-9.3 -12.1,-22.4 -12.1,-38.2 z"
   id="path845"
   inkscape:connector-curvature="0"
   style="fill:#b0b0b0" />
	<g
   id="g855">
		<path
   class="st1"
   d="m 388.5,192.7 h -0.3 c -6.9,13.3 -17.2,20 -32.3,20 -25.4,0 -36.4,-20.7 -36.4,-43.9 0,-24.9 12.1,-44.3 37.5,-44.3 13.8,0 26.7,7.5 31.1,20.8 h 0.3 V 93.7 h 6.2 v 117 h -6.2 v -18 z m -0.2,-23.9 c 0,-19.7 -9.7,-38.8 -31.3,-38.8 -22.3,0 -31.3,18.5 -31.3,38.8 0,19.8 9.8,38.5 31.5,38.5 21.3,0 31.1,-19.2 31.1,-38.5 z"
   id="path847"
   inkscape:connector-curvature="0"
   style="fill:#886437" />
		<path
   class="st1"
   d="m 437,124.5 c 24.8,0 38.7,20.2 38.7,44.1 0,23.9 -13.9,44.1 -38.7,44.1 -24.7,0 -38.7,-20.2 -38.7,-44.1 0,-23.9 13.9,-44.1 38.7,-44.1 z m 0,82.8 c 21.2,0 32.5,-18.5 32.5,-38.7 0,-20.2 -11.3,-38.7 -32.5,-38.7 -21.1,0 -32.4,18.5 -32.4,38.7 -0.1,20.2 11.2,38.7 32.4,38.7 z"
   id="path849"
   inkscape:connector-curvature="0"
   style="fill:#886437" />
		<path
   class="st1"
   d="m 541.4,152.5 c -1.1,-14.9 -13.3,-22.6 -28.5,-22.6 -21.2,0 -32.5,18.7 -32.5,37.9 0,22.8 10.6,39.5 32.5,39.5 15.7,0 27.2,-10.8 29.3,-26.2 h 6.2 c -2.8,20.2 -17.4,31.6 -35.6,31.6 -27.4,0 -38.7,-21.5 -38.7,-44.9 0,-23.4 13.8,-43.3 38.7,-43.3 18.2,0 32.9,8.8 34.7,28 z"
   id="path851"
   inkscape:connector-curvature="0"
   style="fill:#886437" />
		<path
   class="st1"
   d="m 553.6,182.7 c 1,15.6 12.6,24.6 27.9,24.6 11,0 26.7,-3.3 26.7,-17.9 0,-14.3 -14.4,-16.4 -28.8,-19.3 -14.6,-2.9 -29,-6.7 -29,-23.9 0,-16.7 16.2,-21.6 30.5,-21.6 17.9,0 31.1,7.7 31.1,26.9 h -6.2 C 605.6,136.3 595,130 580.9,130 c -11.5,0 -24.3,4.3 -24.3,16.2 0,13.4 14.4,15.6 28,18.5 16.7,3.1 29.8,7 29.8,24.7 0,18.2 -18.2,23.3 -32.9,23.3 -19.2,0 -33.6,-10.3 -34.1,-30 z"
   id="path853"
   inkscape:connector-curvature="0"
   style="fill:#886437" />
	</g>
</g>
</svg>